<svg height="2334" width="720" xmlns="http://www.w3.org/2000/svg">
<rect height="2334" fill="#555" width="720"></rect>
<text fill="#7f7" font-family="Courier New" font-size="12" xml:space="preserve">
<tspan x="10" y="26">31 megabytes installed</tspan>
<tspan x="10" y="42"></tspan>
<tspan x="10" y="58">node_modules</tspan>
<tspan x="10" y="74">├── UNMET PEER DEPENDENCY grunt@&gt;=0.4.0</tspan>
<tspan x="10" y="90">└─┬ grunt-protractor-runner@5.0.0 </tspan>
<tspan x="10" y="106">  ├─┬ protractor@5.1.1 </tspan>
<tspan x="10" y="122">  │ ├── @types/node@6.0.70 </tspan>
<tspan x="10" y="138">  │ ├── @types/q@0.0.32 </tspan>
<tspan x="10" y="154">  │ ├── @types/selenium-webdriver@2.53.42 </tspan>
<tspan x="10" y="170">  │ ├─┬ blocking-proxy@0.0.5 </tspan>
<tspan x="10" y="186">  │ │ └── minimist@1.2.0 </tspan>
<tspan x="10" y="202">  │ ├─┬ chalk@1.1.3 </tspan>
<tspan x="10" y="218">  │ │ ├── ansi-styles@2.2.1 </tspan>
<tspan x="10" y="234">  │ │ ├── escape-string-regexp@1.0.5 </tspan>
<tspan x="10" y="250">  │ │ ├─┬ has-ansi@2.0.0 </tspan>
<tspan x="10" y="266">  │ │ │ └── ansi-regex@2.1.1 </tspan>
<tspan x="10" y="282">  │ │ ├── strip-ansi@3.0.1 </tspan>
<tspan x="10" y="298">  │ │ └── supports-color@2.0.0 </tspan>
<tspan x="10" y="314">  │ ├─┬ glob@7.1.1 </tspan>
<tspan x="10" y="330">  │ │ ├── fs.realpath@1.0.0 </tspan>
<tspan x="10" y="346">  │ │ ├─┬ inflight@1.0.6 </tspan>
<tspan x="10" y="362">  │ │ │ └── wrappy@1.0.2 </tspan>
<tspan x="10" y="378">  │ │ ├── inherits@2.0.3 </tspan>
<tspan x="10" y="394">  │ │ ├─┬ minimatch@3.0.3 </tspan>
<tspan x="10" y="410">  │ │ │ └─┬ brace-expansion@1.1.7 </tspan>
<tspan x="10" y="426">  │ │ │   ├── balanced-match@0.4.2 </tspan>
<tspan x="10" y="442">  │ │ │   └── concat-map@0.0.1 </tspan>
<tspan x="10" y="458">  │ │ ├── once@1.4.0 </tspan>
<tspan x="10" y="474">  │ │ └── path-is-absolute@1.0.1 </tspan>
<tspan x="10" y="490">  │ ├─┬ jasmine@2.6.0 </tspan>
<tspan x="10" y="506">  │ │ ├── exit@0.1.2 </tspan>
<tspan x="10" y="522">  │ │ └── jasmine-core@2.6.0 </tspan>
<tspan x="10" y="538">  │ ├── jasminewd2@2.0.0 </tspan>
<tspan x="10" y="554">  │ ├─┬ optimist@0.6.1 </tspan>
<tspan x="10" y="570">  │ │ ├── minimist@0.0.10 </tspan>
<tspan x="10" y="586">  │ │ └── wordwrap@0.0.3 </tspan>
<tspan x="10" y="602">  │ ├── q@1.4.1 </tspan>
<tspan x="10" y="618">  │ ├─┬ saucelabs@1.3.0 </tspan>
<tspan x="10" y="634">  │ │ └─┬ https-proxy-agent@1.0.0 </tspan>
<tspan x="10" y="650">  │ │   ├─┬ agent-base@2.0.1 </tspan>
<tspan x="10" y="666">  │ │   │ └── semver@5.0.3 </tspan>
<tspan x="10" y="682">  │ │   └─┬ debug@2.6.4 </tspan>
<tspan x="10" y="698">  │ │     └── ms@0.7.3 </tspan>
<tspan x="10" y="714">  │ ├─┬ selenium-webdriver@3.0.1 </tspan>
<tspan x="10" y="730">  │ │ └─┬ tmp@0.0.30 </tspan>
<tspan x="10" y="746">  │ │   └── os-tmpdir@1.0.2 </tspan>
<tspan x="10" y="762">  │ ├─┬ source-map-support@0.4.14 </tspan>
<tspan x="10" y="778">  │ │ └── source-map@0.5.6 </tspan>
<tspan x="10" y="794">  │ ├─┬ webdriver-js-extender@1.0.0 </tspan>
<tspan x="10" y="810">  │ │ └─┬ selenium-webdriver@2.53.3 </tspan>
<tspan x="10" y="826">  │ │   ├── adm-zip@0.4.4 </tspan>
<tspan x="10" y="842">  │ │   ├── tmp@0.0.24 </tspan>
<tspan x="10" y="858">  │ │   ├─┬ ws@1.1.4 </tspan>
<tspan x="10" y="874">  │ │   │ ├── options@0.0.6 </tspan>
<tspan x="10" y="890">  │ │   │ └── ultron@1.0.2 </tspan>
<tspan x="10" y="906">  │ │   └─┬ xml2js@0.4.4 </tspan>
<tspan x="10" y="922">  │ │     └── sax@0.6.1 </tspan>
<tspan x="10" y="938">  │ └─┬ webdriver-manager@12.0.5 </tspan>
<tspan x="10" y="954">  │   ├── adm-zip@0.4.7 </tspan>
<tspan x="10" y="970">  │   ├─┬ del@2.2.2 </tspan>
<tspan x="10" y="986">  │   │ ├─┬ globby@5.0.0 </tspan>
<tspan x="10" y="1002">  │   │ │ ├─┬ array-union@1.0.2 </tspan>
<tspan x="10" y="1018">  │   │ │ │ └── array-uniq@1.0.3 </tspan>
<tspan x="10" y="1034">  │   │ │ └── arrify@1.0.1 </tspan>
<tspan x="10" y="1050">  │   │ ├── is-path-cwd@1.0.0 </tspan>
<tspan x="10" y="1066">  │   │ ├─┬ is-path-in-cwd@1.0.0 </tspan>
<tspan x="10" y="1082">  │   │ │ └─┬ is-path-inside@1.0.0 </tspan>
<tspan x="10" y="1098">  │   │ │   └── path-is-inside@1.0.2 </tspan>
<tspan x="10" y="1114">  │   │ ├── object-assign@4.1.1 </tspan>
<tspan x="10" y="1130">  │   │ ├── pify@2.3.0 </tspan>
<tspan x="10" y="1146">  │   │ └─┬ pinkie-promise@2.0.1 </tspan>
<tspan x="10" y="1162">  │   │   └── pinkie@2.0.4 </tspan>
<tspan x="10" y="1178">  │   ├── ini@1.3.4 </tspan>
<tspan x="10" y="1194">  │   ├─┬ request@2.81.0 </tspan>
<tspan x="10" y="1210">  │   │ ├── aws-sign2@0.6.0 </tspan>
<tspan x="10" y="1226">  │   │ ├── aws4@1.6.0 </tspan>
<tspan x="10" y="1242">  │   │ ├── caseless@0.12.0 </tspan>
<tspan x="10" y="1258">  │   │ ├─┬ combined-stream@1.0.5 </tspan>
<tspan x="10" y="1274">  │   │ │ └── delayed-stream@1.0.0 </tspan>
<tspan x="10" y="1290">  │   │ ├── extend@3.0.0 </tspan>
<tspan x="10" y="1306">  │   │ ├── forever-agent@0.6.1 </tspan>
<tspan x="10" y="1322">  │   │ ├─┬ form-data@2.1.4 </tspan>
<tspan x="10" y="1338">  │   │ │ └── asynckit@0.4.0 </tspan>
<tspan x="10" y="1354">  │   │ ├─┬ har-validator@4.2.1 </tspan>
<tspan x="10" y="1370">  │   │ │ ├─┬ ajv@4.11.7 </tspan>
<tspan x="10" y="1386">  │   │ │ │ ├── co@4.6.0 </tspan>
<tspan x="10" y="1402">  │   │ │ │ └─┬ json-stable-stringify@1.0.1 </tspan>
<tspan x="10" y="1418">  │   │ │ │   └── jsonify@0.0.0 </tspan>
<tspan x="10" y="1434">  │   │ │ └── har-schema@1.0.5 </tspan>
<tspan x="10" y="1450">  │   │ ├─┬ hawk@3.1.3 </tspan>
<tspan x="10" y="1466">  │   │ │ ├── boom@2.10.1 </tspan>
<tspan x="10" y="1482">  │   │ │ ├── cryptiles@2.0.5 </tspan>
<tspan x="10" y="1498">  │   │ │ ├── hoek@2.16.3 </tspan>
<tspan x="10" y="1514">  │   │ │ └── sntp@1.0.9 </tspan>
<tspan x="10" y="1530">  │   │ ├─┬ http-signature@1.1.1 </tspan>
<tspan x="10" y="1546">  │   │ │ ├── assert-plus@0.2.0 </tspan>
<tspan x="10" y="1562">  │   │ │ ├─┬ jsprim@1.4.0 </tspan>
<tspan x="10" y="1578">  │   │ │ │ ├── assert-plus@1.0.0 </tspan>
<tspan x="10" y="1594">  │   │ │ │ ├── extsprintf@1.0.2 </tspan>
<tspan x="10" y="1610">  │   │ │ │ ├── json-schema@0.2.3 </tspan>
<tspan x="10" y="1626">  │   │ │ │ └── verror@1.3.6 </tspan>
<tspan x="10" y="1642">  │   │ │ └─┬ sshpk@1.13.0 </tspan>
<tspan x="10" y="1658">  │   │ │   ├── asn1@0.2.3 </tspan>
<tspan x="10" y="1674">  │   │ │   ├── assert-plus@1.0.0 </tspan>
<tspan x="10" y="1690">  │   │ │   ├── bcrypt-pbkdf@1.0.1 </tspan>
<tspan x="10" y="1706">  │   │ │   ├─┬ dashdash@1.14.1 </tspan>
<tspan x="10" y="1722">  │   │ │   │ └── assert-plus@1.0.0 </tspan>
<tspan x="10" y="1738">  │   │ │   ├── ecc-jsbn@0.1.1 </tspan>
<tspan x="10" y="1754">  │   │ │   ├─┬ getpass@0.1.6 </tspan>
<tspan x="10" y="1770">  │   │ │   │ └── assert-plus@1.0.0 </tspan>
<tspan x="10" y="1786">  │   │ │   ├── jodid25519@1.0.2 </tspan>
<tspan x="10" y="1802">  │   │ │   ├── jsbn@0.1.1 </tspan>
<tspan x="10" y="1818">  │   │ │   └── tweetnacl@0.14.5 </tspan>
<tspan x="10" y="1834">  │   │ ├── is-typedarray@1.0.0 </tspan>
<tspan x="10" y="1850">  │   │ ├── isstream@0.1.2 </tspan>
<tspan x="10" y="1866">  │   │ ├── json-stringify-safe@5.0.1 </tspan>
<tspan x="10" y="1882">  │   │ ├─┬ mime-types@2.1.15 </tspan>
<tspan x="10" y="1898">  │   │ │ └── mime-db@1.27.0 </tspan>
<tspan x="10" y="1914">  │   │ ├── oauth-sign@0.8.2 </tspan>
<tspan x="10" y="1930">  │   │ ├── performance-now@0.2.0 </tspan>
<tspan x="10" y="1946">  │   │ ├── qs@6.4.0 </tspan>
<tspan x="10" y="1962">  │   │ ├── safe-buffer@5.0.1 </tspan>
<tspan x="10" y="1978">  │   │ ├── stringstream@0.0.5 </tspan>
<tspan x="10" y="1994">  │   │ ├─┬ tough-cookie@2.3.2 </tspan>
<tspan x="10" y="2010">  │   │ │ └── punycode@1.4.1 </tspan>
<tspan x="10" y="2026">  │   │ ├── tunnel-agent@0.6.0 </tspan>
<tspan x="10" y="2042">  │   │ └── uuid@3.0.1 </tspan>
<tspan x="10" y="2058">  │   ├── rimraf@2.6.1 </tspan>
<tspan x="10" y="2074">  │   ├── semver@5.3.0 </tspan>
<tspan x="10" y="2090">  │   └─┬ xml2js@0.4.17 </tspan>
<tspan x="10" y="2106">  │     ├── sax@1.2.2 </tspan>
<tspan x="10" y="2122">  │     └─┬ xmlbuilder@4.2.1 </tspan>
<tspan x="10" y="2138">  │       └── lodash@4.17.4 </tspan>
<tspan x="10" y="2154">  ├─┬ split@1.0.0 </tspan>
<tspan x="10" y="2170">  │ └── through@2.3.8 </tspan>
<tspan x="10" y="2186">  └─┬ through2@2.0.3 </tspan>
<tspan x="10" y="2202">    ├─┬ readable-stream@2.2.9 </tspan>
<tspan x="10" y="2218">    │ ├── buffer-shims@1.0.0 </tspan>
<tspan x="10" y="2234">    │ ├── core-util-is@1.0.2 </tspan>
<tspan x="10" y="2250">    │ ├── isarray@1.0.0 </tspan>
<tspan x="10" y="2266">    │ ├── process-nextick-args@1.0.7 </tspan>
<tspan x="10" y="2282">    │ ├── string_decoder@1.0.0 </tspan>
<tspan x="10" y="2298">    │ └── util-deprecate@1.0.2 </tspan>
<tspan x="10" y="2314">    └── xtend@4.0.1</tspan>
</text>
</svg>
